HIERARCHY
ROOT Hip
{
	OFFSET	0.0000	0.0000	0.0000
	CHANNELS 6 Xposition Yposition Zposition Xrotation Yrotation Zrotation
	JOINT LowerSpine
	{
		OFFSET	0.0000	9.2663	-5.5158
		CHANNELS 3 Xrotation Yrotation Zrotation
		JOINT MiddleSpine
		{
			OFFSET	0.0000	8.4562	0.3976
			CHANNELS 3 Xrotation Yrotation Zrotation
			JOINT Chest
			{
				OFFSET	0.0000	10.4635	-2.0962
				CHANNELS 3 Xrotation Yrotation Zrotation
				JOINT Neck
				{
					OFFSET	0.0000	23.5793	-0.4413
					CHANNELS 3 Xrotation Yrotation Zrotation
					JOINT Head
					{
						OFFSET	-0.0001	13.3155	3.6218
						CHANNELS 3 Xrotation Yrotation Zrotation
						End Site
						{
							OFFSET	0.0001	18.6051	0.5554
						}
					}
				}
				JOINT LClavicle
				{
					OFFSET	2.1425	22.7552	7.0165
					CHANNELS 3 Xrotation Yrotation Zrotation
					JOINT LShoulder
					{
						OFFSET	12.5166	3.2639	-5.2813
						CHANNELS 3 Xrotation Yrotation Zrotation
						JOINT LForearm
						{
							OFFSET	29.5419	-0.1047	-0.2560
							CHANNELS 3 Xrotation Yrotation Zrotation
							JOINT LHand
							{
								OFFSET	24.6442	0.0715	-0.1476
								CHANNELS 3 Xrotation Yrotation Zrotation
								JOINT LFinger1
								{
									OFFSET	9.5514	0.8353	2.6529
									CHANNELS 3 Xrotation Yrotation Zrotation
									JOINT LFinger11
									{
										OFFSET	3.5727	-0.8712	0.6295
										CHANNELS 3 Xrotation Yrotation Zrotation
										JOINT LFinger12
										{
											OFFSET	2.4390	-0.5949	0.4299
											CHANNELS 3 Xrotation Yrotation Zrotation
											End Site
											{
												OFFSET	1.7356	-0.5181	0.2815
											}
										}
									}
								}
								JOINT LFinger2
								{
									OFFSET	9.6939	0.9646	0.2310
									CHANNELS 3 Xrotation Yrotation Zrotation
									JOINT LFinger21
									{
										OFFSET	4.4174	0.0123	-0.0261
										CHANNELS 3 Xrotation Yrotation Zrotation
										JOINT LFinger22
										{
											OFFSET	2.4486	0.0075	-0.0149
											CHANNELS 3 Xrotation Yrotation Zrotation
											End Site
											{
												OFFSET	2.1993	-0.1553	0.0029
											}
										}
									}
								}
								JOINT LFinger3
								{
									OFFSET	9.1870	0.6438	-2.1735
									CHANNELS 3 Xrotation Yrotation Zrotation
									JOINT LFinger31
									{
										OFFSET	4.0084	-0.2029	-0.2510
										CHANNELS 3 Xrotation Yrotation Zrotation
										JOINT LFinger32
										{
											OFFSET	2.2842	-0.1149	-0.1435
											CHANNELS 3 Xrotation Yrotation Zrotation
											End Site
											{
												OFFSET	2.0196	-0.2483	-0.0955
											}
										}
									}
								}
								JOINT LFinger4
								{
									OFFSET	8.5252	-0.6478	-3.7536
									CHANNELS 3 Xrotation Yrotation Zrotation
									JOINT LFinger41
									{
										OFFSET	2.4655	-0.5142	-0.6806
										CHANNELS 3 Xrotation Yrotation Zrotation
										JOINT LFinger42
										{
											OFFSET	1.8080	-0.3765	-0.4994
											CHANNELS 3 Xrotation Yrotation Zrotation
											End Site
											{
												OFFSET	1.6047	-0.4409	-0.3682
											}
										}
									}
								}
								JOINT LFinger0
								{
									OFFSET	1.9759	-1.4955	1.4979
									CHANNELS 3 Xrotation Yrotation Zrotation
									JOINT LFinger01
									{
										OFFSET	3.6787	-1.2081	2.7735
										CHANNELS 3 Xrotation Yrotation Zrotation
										JOINT LFinger02
										{
											OFFSET	2.4224	-0.8668	1.7452
											CHANNELS 3 Xrotation Yrotation Zrotation
											End Site
											{
												OFFSET	1.7813	-0.6132	1.2198
											}
										}
									}
								}
							}
						}
					}
				}
				JOINT RClavicle
				{
					OFFSET	-2.1425	22.7552	7.0164
					CHANNELS 3 Xrotation Yrotation Zrotation
					JOINT RShoulder
					{
						OFFSET	-12.5188	3.2645	-5.2822
						CHANNELS 3 Xrotation Yrotation Zrotation
						JOINT RForearm
						{
							OFFSET	-29.5419	-0.1047	-0.2560
							CHANNELS 3 Xrotation Yrotation Zrotation
							JOINT RHand
							{
								OFFSET	-24.6442	0.0715	-0.1476
								CHANNELS 3 Xrotation Yrotation Zrotation
								JOINT RFinger1
								{
									OFFSET	-9.5514	0.8354	2.6529
									CHANNELS 3 Xrotation Yrotation Zrotation
									JOINT RFinger11
									{
										OFFSET	-3.5727	-0.8712	0.6295
										CHANNELS 3 Xrotation Yrotation Zrotation
										JOINT RFinger12
										{
											OFFSET	-2.4390	-0.5950	0.4299
											CHANNELS 3 Xrotation Yrotation Zrotation
											End Site
											{
												OFFSET	-1.7356	-0.5181	0.2815
											}
										}
									}
								}
								JOINT RFinger2
								{
									OFFSET	-9.6939	0.9647	0.2310
									CHANNELS 3 Xrotation Yrotation Zrotation
									JOINT RFinger21
									{
										OFFSET	-4.4175	0.0123	-0.0261
										CHANNELS 3 Xrotation Yrotation Zrotation
										JOINT RFinger22
										{
											OFFSET	-2.4486	0.0075	-0.0150
											CHANNELS 3 Xrotation Yrotation Zrotation
											End Site
											{
												OFFSET	-2.1993	-0.1553	0.0029
											}
										}
									}
								}
								JOINT RFinger3
								{
									OFFSET	-9.1870	0.6438	-2.1735
									CHANNELS 3 Xrotation Yrotation Zrotation
									JOINT RFinger31
									{
										OFFSET	-4.0084	-0.2029	-0.2510
										CHANNELS 3 Xrotation Yrotation Zrotation
										JOINT RFinger32
										{
											OFFSET	-2.2842	-0.1149	-0.1435
											CHANNELS 3 Xrotation Yrotation Zrotation
											End Site
											{
												OFFSET	-2.0196	-0.2483	-0.0955
											}
										}
									}
								}
								JOINT RFinger4
								{
									OFFSET	-8.5252	-0.6478	-3.7536
									CHANNELS 3 Xrotation Yrotation Zrotation
									JOINT RFinger41
									{
										OFFSET	-2.4655	-0.5141	-0.6806
										CHANNELS 3 Xrotation Yrotation Zrotation
										JOINT RFinger42
										{
											OFFSET	-1.8080	-0.3764	-0.4994
											CHANNELS 3 Xrotation Yrotation Zrotation
											End Site
											{
												OFFSET	-1.6047	-0.4409	-0.3682
											}
										}
									}
								}
								JOINT RFinger0
								{
									OFFSET	-1.9759	-1.4954	1.4978
									CHANNELS 3 Xrotation Yrotation Zrotation
									JOINT RFinger01
									{
										OFFSET	-3.6787	-1.2083	2.7736
										CHANNELS 3 Xrotation Yrotation Zrotation
										JOINT RFinger02
										{
											OFFSET	-2.4223	-0.8667	1.7452
											CHANNELS 3 Xrotation Yrotation Zrotation
											End Site
											{
												OFFSET	-1.7813	-0.6132	1.2198
											}
										}
									}
								}
							}
						}
					}
				}
			}
		}
	}
	JOINT RThigh
	{
		OFFSET	-10.9561	4.1886	-0.8987
		CHANNELS 3 Xrotation Yrotation Zrotation
		JOINT RShin
		{
			OFFSET	-0.7932	-43.1154	0.0000
			CHANNELS 3 Xrotation Yrotation Zrotation
			JOINT RFoot
			{
				OFFSET	0.0000	-42.3368	0.0000
				CHANNELS 3 Xrotation Yrotation Zrotation
				JOINT RToe
				{
					OFFSET	0.0000	-4.6532	9.7304
					CHANNELS 3 Xrotation Yrotation Zrotation
					End Site
					{
						OFFSET	0.0000	0.0000	6.5278
					}
				}
			}
		}
	}
	JOINT LThigh
	{
		OFFSET	10.9559	4.1889	-0.8988
		CHANNELS 3 Xrotation Yrotation Zrotation
		JOINT LShin
		{
			OFFSET	0.7933	-43.1157	0.0000
			CHANNELS 3 Xrotation Yrotation Zrotation
			JOINT LFoot
			{
				OFFSET	0.0000	-42.3368	0.0000
				CHANNELS 3 Xrotation Yrotation Zrotation
				JOINT LToe
				{
					OFFSET	0.0000	-4.6532	9.7305
					CHANNELS 3 Xrotation Yrotation Zrotation
					End Site
					{
						OFFSET	0.0000	0.0000	6.5278
					}
				}
			}
		}
	}
}
MOTION
Frames:	5
Frame Time: 0.0333333000
	-4.1460	73.9466	19.0527	118.938400	-59.281100	132.956600	0.000000	0.000000	0.000000	-2.573525	-3.395025	-1.962989	-9.285346	-13.418600	-8.323512	-15.877190	6.046557	-14.084900	-3.222838	-0.341031	5.889218	-15.238690	4.256222	-11.024430	12.629800	-34.316420	-35.822470	0.026275	-8.552953	-0.001402	0.000000	0.000000	0.000000	0.000000	0.000000	0.000000	0.000000	0.000000	0.000000	0.000000	0.000000	0.000000	0.000000	0.000000	0.000000	0.000000	0.000000	0.000000	0.000000	0.000000	0.000000	0.000000	0.000000	0.000000	0.000000	0.000000	0.000000	0.000000	0.000000	0.000000	0.000000	0.000000	0.000000	0.000000	0.000000	0.000000	0.000000	0.000000	0.000000	0.000000	0.000000	0.000000	0.000000	0.000000	0.000000	0.000000	0.000000	0.000000	0.360320	0.871077	11.600110	17.882870	28.774850	50.701340	0.037041	12.737700	0.000422	0.000000	0.000000	0.000000	0.000000	0.000000	0.000000	0.000000	0.000000	0.000000	0.000000	0.000000	0.000000	0.000000	0.000000	0.000000	0.000000	0.000000	0.000000	0.000000	0.000000	0.000000	0.000000	0.000000	0.000000	0.000000	0.000000	0.000000	0.000000	0.000000	0.000000	0.000000	0.000000	0.000000	0.000000	0.000000	0.000000	0.000000	0.000000	0.000000	0.000000	0.000000	0.000000	0.000000	0.000000	0.000000	0.000000	0.000000	0.000000	-43.353680	-14.958840	2.829113	43.196480	-0.000002	0.000000	-3.651086	-4.044680	-2.104112	-16.020080	0.000000	0.000000	-25.319070	0.540262	25.522870	-0.055081	0.000000	0.000000	0.471397	-2.697057	-1.277461	0.000000	0.000000	0.000000
	-4.6146	73.7642	21.4197	126.049500	-55.135480	141.133600	0.000000	0.000000	0.000000	-2.447176	-3.386251	-1.774395	-7.920786	-13.651450	-7.017376	-17.841880	6.841436	-15.195970	-3.402969	-0.385730	6.482515	-15.593080	4.495145	-11.961820	12.486710	-36.126030	-39.791950	0.024768	-8.359068	-0.001316	0.000000	0.000000	0.000000	0.000000	0.000000	0.000000	0.000000	0.000000	0.000000	0.000000	0.000000	0.000000	0.000000	0.000000	0.000000	0.000000	0.000000	0.000000	0.000000	0.000000	0.000000	0.000000	0.000000	0.000000	0.000000	0.000000	0.000000	0.000000	0.000000	0.000000	0.000000	0.000000	0.000000	0.000000	0.000000	0.000000	0.000000	0.000000	0.000000	0.000000	0.000000	0.000000	0.000000	0.000000	0.000000	0.000000	0.000000	0.000000	0.383953	0.929722	11.628030	16.004910	34.309490	50.165470	0.038170	12.560640	0.000691	0.000000	0.000000	0.000000	0.000000	0.000000	0.000000	0.000000	0.000000	0.000000	0.000000	0.000000	0.000000	0.000000	0.000000	0.000000	0.000000	0.000000	0.000000	0.000000	0.000000	0.000000	0.000000	0.000000	0.000000	0.000000	0.000000	0.000000	0.000000	0.000000	0.000000	0.000000	0.000000	0.000000	0.000000	0.000000	0.000000	0.000000	0.000000	0.000000	0.000000	0.000000	0.000000	0.000000	0.000000	0.000000	0.000000	0.000000	0.000000	-45.495410	-15.155730	2.583178	44.795340	-0.000002	0.000000	-2.532579	-6.221339	-3.143438	-17.718580	0.000000	0.000000	-24.400050	0.729275	26.871750	-0.116554	0.000000	0.000000	0.803471	-2.060700	-0.970045	0.000000	0.000000	0.000000
	-5.0213	73.2901	23.8905	130.605700	-51.278510	147.053800	0.000000	0.000000	0.000000	-2.314757	-3.363659	-1.579257	-6.773194	-13.757690	-5.877848	-19.274380	7.429415	-15.959950	-3.527447	-0.410250	6.768381	-15.825570	4.639452	-12.467060	10.709020	-39.965950	-44.398050	0.019135	-6.857180	-0.001197	0.000000	0.000000	0.000000	0.000000	0.000000	0.000000	0.000000	0.000000	0.000000	0.000000	0.000000	0.000000	0.000000	0.000000	0.000000	0.000000	0.000000	0.000000	0.000000	0.000000	0.000000	0.000000	0.000000	0.000000	0.000000	0.000000	0.000000	0.000000	0.000000	0.000000	0.000000	0.000000	0.000000	0.000000	0.000000	0.000000	0.000000	0.000000	0.000000	0.000000	0.000000	0.000000	0.000000	0.000000	0.000000	0.000000	0.000000	0.000000	0.214947	0.519623	11.576950	14.342690	39.322480	49.945330	0.039970	12.536000	0.000986	0.000000	0.000000	0.000000	0.000000	0.000000	0.000000	0.000000	0.000000	0.000000	0.000000	0.000000	0.000000	0.000000	0.000000	0.000000	0.000000	0.000000	0.000000	0.000000	0.000000	0.000000	0.000000	0.000000	0.000000	0.000000	0.000000	0.000000	0.000000	0.000000	0.000000	0.000000	0.000000	0.000000	0.000000	0.000000	0.000000	0.000000	0.000000	0.000000	0.000000	0.000000	0.000000	0.000000	0.000000	0.000000	0.000000	0.000000	0.000000	-48.583190	-15.055940	1.740735	47.506870	-0.000002	0.000000	-1.920877	-8.568974	-4.279799	-19.099920	0.000000	0.000000	-23.845810	1.014847	27.572320	-0.358967	0.000000	0.000000	1.316368	-0.860049	-0.398450	0.000000	0.000000	0.000000
	-5.6539	72.6967	26.6309	133.581200	-47.910060	151.469200	0.000000	0.000000	0.000000	-2.179050	-3.326816	-1.379310	-5.624386	-13.764520	-4.794149	-20.081430	7.831065	-16.514040	-3.566479	-0.409004	6.706395	-15.303300	4.234055	-10.722520	7.306280	-47.079720	-50.315320	0.014110	-5.338710	-0.001031	0.000000	0.000000	0.000000	0.000000	0.000000	0.000000	0.000000	0.000000	0.000000	0.000000	0.000000	0.000000	0.000000	0.000000	0.000000	0.000000	0.000000	0.000000	0.000000	0.000000	0.000000	0.000000	0.000000	0.000000	0.000000	0.000000	0.000000	0.000000	0.000000	0.000000	0.000000	0.000000	0.000000	0.000000	0.000000	0.000000	0.000000	0.000000	0.000000	0.000000	0.000000	0.000000	0.000000	0.000000	0.000000	0.000000	0.000000	0.000000	0.070763	0.170535	11.582420	13.244050	43.100930	49.524740	0.043534	13.656570	0.000657	0.000000	0.000000	0.000000	0.000000	0.000000	0.000000	0.000000	0.000000	0.000000	0.000000	0.000000	0.000000	0.000000	0.000000	0.000000	0.000000	0.000000	0.000000	0.000000	0.000000	0.000000	0.000000	0.000000	0.000000	0.000000	0.000000	0.000000	0.000000	0.000000	0.000000	0.000000	0.000000	0.000000	0.000000	0.000000	0.000000	0.000000	0.000000	0.000000	0.000000	0.000000	0.000000	0.000000	0.000000	0.000000	0.000000	0.000000	0.000000	-52.111230	-14.520580	0.189136	50.913510	-0.000002	0.000000	-2.076232	-9.427127	-4.733304	-19.613340	0.000000	0.000000	-23.803070	1.282280	27.831010	-0.598096	0.000000	0.000000	1.462952	0.234156	0.110194	0.000000	0.000000	0.000000
	-6.4070	72.0385	29.7019	135.358200	-44.868440	154.535300	0.000000	0.000000	0.000000	-2.042758	-3.275485	-1.176486	-4.671093	-13.666550	-3.873412	-20.385600	8.056201	-16.868630	-3.586017	-0.400455	6.544751	-13.959530	3.302645	-6.493889	3.344761	-58.502920	-56.315480	0.013477	-4.942581	-0.001053	0.000000	0.000000	0.000000	0.000000	0.000000	0.000000	0.000000	0.000000	0.000000	0.000000	0.000000	0.000000	0.000000	0.000000	0.000000	0.000000	0.000000	0.000000	0.000000	0.000000	0.000000	0.000000	0.000000	0.000000	0.000000	0.000000	0.000000	0.000000	0.000000	0.000000	0.000000	0.000000	0.000000	0.000000	0.000000	0.000000	0.000000	0.000000	0.000000	0.000000	0.000000	0.000000	0.000000	0.000000	0.000000	0.000000	0.000000	0.000000	0.031192	0.074731	11.593250	12.545040	46.130740	49.054720	0.046607	14.966350	0.000019	0.000000	0.000000	0.000000	0.000000	0.000000	0.000000	0.000000	0.000000	0.000000	0.000000	0.000000	0.000000	0.000000	0.000000	0.000000	0.000000	0.000000	0.000000	0.000000	0.000000	0.000000	0.000000	0.000000	0.000000	0.000000	0.000000	0.000000	0.000000	0.000000	0.000000	0.000000	0.000000	0.000000	0.000000	0.000000	0.000000	0.000000	0.000000	0.000000	0.000000	0.000000	0.000000	0.000000	0.000000	0.000000	0.000000	0.000000	0.000000	-56.066620	-13.644070	-1.650127	54.678550	-0.000002	0.000000	-2.523999	-9.020611	-4.567956	-19.587310	0.000000	0.000000	-24.513770	1.360102	28.087940	-0.682753	0.000000	0.000000	1.286844	0.961847	0.446305	0.000000	0.000000	0.000000
